 0
SECTION
 2
ENTITIES
  0
POLYLINE
 8
Layer0
 66
     1
70
    8
 10
0.0
 20
 0.0
 30
0.0
  0
VERTEX
  8
MY3DLAYER
10
0.0
20
0.0
30
0.0
 70
     32
  0
VERTEX
  8
MY3DLAYER
10
0.0
20
140.0
30
0.0
 70
     32
  0
VERTEX
  8
MY3DLAYER
10
90.0
20
140.0
30
0.0
 70
     32
  0
VERTEX
  8
MY3DLAYER
10
90.0
20
0.0
30
0.0
 70
     32
  0
VERTEX
  8
MY3DLAYER
10
0.0
20
0.0
30
0.0
 70
     32
  0
SEQEND
  0
POLYLINE
 8
Layer0
 66
     1
70
    8
 10
0.0
 20
 0.0
 30
0.0
  0
VERTEX
  8
MY3DLAYER
10
80.6470476127563
20
132.41481456572265
30
0.0
 70
     32
  0
VERTEX
  8
MY3DLAYER
10
80.0
20
132.49999999999997
30
0.0
 70
     32
  0
VERTEX
  8
MY3DLAYER
10
79.3529523872437
20
132.41481456572265
30
0.0
 70
     32
  0
VERTEX
  8
MY3DLAYER
10
78.75
20
132.16506350946108
30
0.0
 70
     32
  0
VERTEX
  8
MY3DLAYER
10
78.23223304703363
20
131.76776695296635
30
0.0
 70
     32
  0
VERTEX
  8
MY3DLAYER
10
77.83493649053891
20
131.25
30
0.0
 70
     32
  0
VERTEX
  8
MY3DLAYER
10
77.58518543427734
20
130.6470476127563
30
0.0
 70
     32
  0
VERTEX
  8
MY3DLAYER
10
77.5
20
130.0
30
0.0
 70
     32
  0
VERTEX
  8
MY3DLAYER
10
77.58518543427734
20
129.3529523872437
30
0.0
 70
     32
  0
VERTEX
  8
MY3DLAYER
10
77.83493649053891
20
128.75
30
0.0
 70
     32
  0
VERTEX
  8
MY3DLAYER
10
78.23223304703363
20
128.23223304703362
30
0.0
 70
     32
  0
VERTEX
  8
MY3DLAYER
10
78.75
20
127.83493649053891
30
0.0
 70
     32
  0
VERTEX
  8
MY3DLAYER
10
79.3529523872437
20
127.58518543427732
30
0.0
 70
     32
  0
VERTEX
  8
MY3DLAYER
10
80.0
20
127.49999999999999
30
0.0
 70
     32
  0
VERTEX
  8
MY3DLAYER
10
80.6470476127563
20
127.58518543427732
30
0.0
 70
     32
  0
VERTEX
  8
MY3DLAYER
10
81.25
20
127.83493649053891
30
0.0
 70
     32
  0
VERTEX
  8
MY3DLAYER
10
81.76776695296637
20
128.23223304703362
30
0.0
 70
     32
  0
VERTEX
  8
MY3DLAYER
10
82.16506350946109
20
128.74999999999997
30
0.0
 70
     32
  0
VERTEX
  8
MY3DLAYER
10
82.41481456572266
20
129.35295238724368
30
0.0
 70
     32
  0
VERTEX
  8
MY3DLAYER
10
82.5
20
130.0
30
0.0
 70
     32
  0
VERTEX
  8
MY3DLAYER
10
82.41481456572266
20
130.64704761275627
30
0.0
 70
     32
  0
VERTEX
  8
MY3DLAYER
10
82.16506350946109
20
131.24999999999997
30
0.0
 70
     32
  0
VERTEX
  8
MY3DLAYER
10
81.76776695296637
20
131.76776695296635
30
0.0
 70
     32
  0
VERTEX
  8
MY3DLAYER
10
81.25
20
132.16506350946108
30
0.0
 70
     32
  0
VERTEX
  8
MY3DLAYER
10
80.6470476127563
20
132.41481456572265
30
0.0
 70
     32
  0
SEQEND
  0
POLYLINE
 8
Layer0
 66
     1
70
    8
 10
0.0
 20
 0.0
 30
0.0
  0
VERTEX
  8
MY3DLAYER
10
82.41481456572266
20
9.352952387243697
30
0.0
 70
     32
  0
VERTEX
  8
MY3DLAYER
10
82.5
20
10.0
30
0.0
 70
     32
  0
VERTEX
  8
MY3DLAYER
10
82.41481456572266
20
10.647047612756301
30
0.0
 70
     32
  0
VERTEX
  8
MY3DLAYER
10
82.16506350946109
20
11.249999999999998
30
0.0
 70
     32
  0
VERTEX
  8
MY3DLAYER
10
81.76776695296637
20
11.767766952966365
30
0.0
 70
     32
  0
VERTEX
  8
MY3DLAYER
10
81.25
20
12.165063509461092
30
0.0
 70
     32
  0
VERTEX
  8
MY3DLAYER
10
80.6470476127563
20
12.414814565722667
30
0.0
 70
     32
  0
VERTEX
  8
MY3DLAYER
10
80.0
20
12.499999999999995
30
0.0
 70
     32
  0
VERTEX
  8
MY3DLAYER
10
79.3529523872437
20
12.414814565722667
30
0.0
 70
     32
  0
VERTEX
  8
MY3DLAYER
10
78.75
20
12.165063509461094
30
0.0
 70
     32
  0
VERTEX
  8
MY3DLAYER
10
78.23223304703363
20
11.767766952966365
30
0.0
 70
     32
  0
VERTEX
  8
MY3DLAYER
10
77.83493649053891
20
11.25
30
0.0
 70
     32
  0
VERTEX
  8
MY3DLAYER
10
77.58518543427734
20
10.647047612756301
30
0.0
 70
     32
  0
VERTEX
  8
MY3DLAYER
10
77.5
20
10.0
30
0.0
 70
     32
  0
VERTEX
  8
MY3DLAYER
10
77.58518543427734
20
9.3529523872437
30
0.0
 70
     32
  0
VERTEX
  8
MY3DLAYER
10
77.83493649053891
20
8.750000000000002
30
0.0
 70
     32
  0
VERTEX
  8
MY3DLAYER
10
78.23223304703363
20
8.232233047033635
30
0.0
 70
     32
  0
VERTEX
  8
MY3DLAYER
10
78.75
20
7.834936490538908
30
0.0
 70
     32
  0
VERTEX
  8
MY3DLAYER
10
79.3529523872437
20
7.585185434277334
30
0.0
 70
     32
  0
VERTEX
  8
MY3DLAYER
10
80.0
20
7.500000000000004
30
0.0
 70
     32
  0
VERTEX
  8
MY3DLAYER
10
80.6470476127563
20
7.585185434277332
30
0.0
 70
     32
  0
VERTEX
  8
MY3DLAYER
10
81.25
20
7.834936490538906
30
0.0
 70
     32
  0
VERTEX
  8
MY3DLAYER
10
81.76776695296637
20
8.232233047033635
30
0.0
 70
     32
  0
VERTEX
  8
MY3DLAYER
10
82.16506350946109
20
8.75
30
0.0
 70
     32
  0
VERTEX
  8
MY3DLAYER
10
82.41481456572266
20
9.352952387243697
30
0.0
 70
     32
  0
SEQEND
  0
POLYLINE
 8
Layer0
 66
     1
70
    8
 10
0.0
 20
 0.0
 30
0.0
  0
VERTEX
  8
MY3DLAYER
10
9.352952387243697
20
7.58518543427733
30
0.0
 70
     32
  0
VERTEX
  8
MY3DLAYER
10
10.0
20
7.5
30
0.0
 70
     32
  0
VERTEX
  8
MY3DLAYER
10
10.647047612756301
20
7.58518543427733
30
0.0
 70
     32
  0
VERTEX
  8
MY3DLAYER
10
11.25
20
7.834936490538904
30
0.0
 70
     32
  0
VERTEX
  8
MY3DLAYER
10
11.767766952966367
20
8.232233047033631
30
0.0
 70
     32
  0
VERTEX
  8
MY3DLAYER
10
12.165063509461095
20
8.75
30
0.0
 70
     32
  0
VERTEX
  8
MY3DLAYER
10
12.41481456572267
20
9.352952387243697
30
0.0
 70
     32
  0
VERTEX
  8
MY3DLAYER
10
12.5
20
10.0
30
0.0
 70
     32
  0
VERTEX
  8
MY3DLAYER
10
12.41481456572267
20
10.647047612756301
30
0.0
 70
     32
  0
VERTEX
  8
MY3DLAYER
10
12.165063509461097
20
11.25
30
0.0
 70
     32
  0
VERTEX
  8
MY3DLAYER
10
11.767766952966369
20
11.767766952966367
30
0.0
 70
     32
  0
VERTEX
  8
MY3DLAYER
10
11.25
20
12.165063509461095
30
0.0
 70
     32
  0
VERTEX
  8
MY3DLAYER
10
10.647047612756305
20
12.41481456572267
30
0.0
 70
     32
  0
VERTEX
  8
MY3DLAYER
10
10.0
20
12.5
30
0.0
 70
     32
  0
VERTEX
  8
MY3DLAYER
10
9.3529523872437
20
12.41481456572267
30
0.0
 70
     32
  0
VERTEX
  8
MY3DLAYER
10
8.750000000000002
20
12.165063509461097
30
0.0
 70
     32
  0
VERTEX
  8
MY3DLAYER
10
8.232233047033633
20
11.767766952966369
30
0.0
 70
     32
  0
VERTEX
  8
MY3DLAYER
10
7.8349364905389045
20
11.25
30
0.0
 70
     32
  0
VERTEX
  8
MY3DLAYER
10
7.58518543427733
20
10.647047612756305
30
0.0
 70
     32
  0
VERTEX
  8
MY3DLAYER
10
7.5
20
10.0
30
0.0
 70
     32
  0
VERTEX
  8
MY3DLAYER
10
7.58518543427733
20
9.352952387243699
30
0.0
 70
     32
  0
VERTEX
  8
MY3DLAYER
10
7.834936490538904
20
8.75
30
0.0
 70
     32
  0
VERTEX
  8
MY3DLAYER
10
8.232233047033631
20
8.232233047033631
30
0.0
 70
     32
  0
VERTEX
  8
MY3DLAYER
10
8.75
20
7.834936490538904
30
0.0
 70
     32
  0
VERTEX
  8
MY3DLAYER
10
9.352952387243697
20
7.58518543427733
30
0.0
 70
     32
  0
SEQEND
  0
POLYLINE
 8
Layer0
 66
     1
70
    8
 10
0.0
 20
 0.0
 30
0.0
  0
VERTEX
  8
MY3DLAYER
10
2.0000000000000018
20
50.00000000000001
30
0.0
 70
     32
  0
VERTEX
  8
MY3DLAYER
10
4.800000000000002
20
50.00000000000001
30
0.0
 70
     32
  0
VERTEX
  8
MY3DLAYER
10
4.800000000000002
20
90.0
30
0.0
 70
     32
  0
VERTEX
  8
MY3DLAYER
10
2.0000000000000018
20
90.0
30
0.0
 70
     32
  0
VERTEX
  8
MY3DLAYER
10
2.0000000000000018
20
50.00000000000001
30
0.0
 70
     32
  0
SEQEND
  0
POLYLINE
 8
Layer0
 66
     1
70
    8
 10
0.0
 20
 0.0
 30
0.0
  0
VERTEX
  8
MY3DLAYER
10
7.58518543427733
20
130.6470476127563
30
0.0
 70
     32
  0
VERTEX
  8
MY3DLAYER
10
7.5
20
130.0
30
0.0
 70
     32
  0
VERTEX
  8
MY3DLAYER
10
7.58518543427733
20
129.35295238724368
30
0.0
 70
     32
  0
VERTEX
  8
MY3DLAYER
10
7.834936490538904
20
128.74999999999997
30
0.0
 70
     32
  0
VERTEX
  8
MY3DLAYER
10
8.232233047033631
20
128.23223304703362
30
0.0
 70
     32
  0
VERTEX
  8
MY3DLAYER
10
8.75
20
127.83493649053888
30
0.0
 70
     32
  0
VERTEX
  8
MY3DLAYER
10
9.352952387243697
20
127.58518543427732
30
0.0
 70
     32
  0
VERTEX
  8
MY3DLAYER
10
10.0
20
127.49999999999999
30
0.0
 70
     32
  0
VERTEX
  8
MY3DLAYER
10
10.647047612756301
20
127.58518543427732
30
0.0
 70
     32
  0
VERTEX
  8
MY3DLAYER
10
11.25
20
127.83493649053888
30
0.0
 70
     32
  0
VERTEX
  8
MY3DLAYER
10
11.767766952966367
20
128.23223304703362
30
0.0
 70
     32
  0
VERTEX
  8
MY3DLAYER
10
12.165063509461095
20
128.74999999999997
30
0.0
 70
     32
  0
VERTEX
  8
MY3DLAYER
10
12.41481456572267
20
129.35295238724368
30
0.0
 70
     32
  0
VERTEX
  8
MY3DLAYER
10
12.5
20
130.0
30
0.0
 70
     32
  0
VERTEX
  8
MY3DLAYER
10
12.41481456572267
20
130.64704761275627
30
0.0
 70
     32
  0
VERTEX
  8
MY3DLAYER
10
12.165063509461097
20
131.25
30
0.0
 70
     32
  0
VERTEX
  8
MY3DLAYER
10
11.767766952966369
20
131.76776695296635
30
0.0
 70
     32
  0
VERTEX
  8
MY3DLAYER
10
11.25
20
132.1650635094611
30
0.0
 70
     32
  0
VERTEX
  8
MY3DLAYER
10
10.647047612756305
20
132.41481456572265
30
0.0
 70
     32
  0
VERTEX
  8
MY3DLAYER
10
10.0
20
132.49999999999997
30
0.0
 70
     32
  0
VERTEX
  8
MY3DLAYER
10
9.3529523872437
20
132.41481456572265
30
0.0
 70
     32
  0
VERTEX
  8
MY3DLAYER
10
8.750000000000002
20
132.1650635094611
30
0.0
 70
     32
  0
VERTEX
  8
MY3DLAYER
10
8.232233047033633
20
131.76776695296635
30
0.0
 70
     32
  0
VERTEX
  8
MY3DLAYER
10
7.8349364905389045
20
131.25
30
0.0
 70
     32
  0
VERTEX
  8
MY3DLAYER
10
7.58518543427733
20
130.6470476127563
30
0.0
 70
     32
  0
SEQEND
  0
POLYLINE
 8
Layer0
 66
     1
70
    8
 10
0.0
 20
 0.0
 30
0.0
  0
VERTEX
  8
MY3DLAYER
10
15.0
20
39.99999999999999
30
0.0
 70
     32
  0
VERTEX
  8
MY3DLAYER
10
75.0
20
40.0
30
0.0
 70
     32
  0
VERTEX
  8
MY3DLAYER
10
75.0
20
100.0
30
0.0
 70
     32
  0
VERTEX
  8
MY3DLAYER
10
15.0
20
100.0
30
0.0
 70
     32
  0
VERTEX
  8
MY3DLAYER
10
15.0
20
39.99999999999999
30
0.0
 70
     32
  0
SEQEND
  0
POLYLINE
 8
Layer0
 66
     1
70
    8
 10
0.0
 20
 0.0
 30
0.0
  0
VERTEX
  8
MY3DLAYER
10
65.0
20
27.0
30
0.0
 70
     32
  0
VERTEX
  8
MY3DLAYER
10
65.0
20
29.8
30
0.0
 70
     32
  0
VERTEX
  8
MY3DLAYER
10
25.000000000000004
20
29.8
30
0.0
 70
     32
  0
VERTEX
  8
MY3DLAYER
10
25.000000000000004
20
27.0
30
0.0
 70
     32
  0
VERTEX
  8
MY3DLAYER
10
65.0
20
27.0
30
0.0
 70
     32
  0
SEQEND
  0
POLYLINE
 8
Layer0
 66
     1
70
    8
 10
0.0
 20
 0.0
 30
0.0
  0
VERTEX
  8
MY3DLAYER
10
25.000000000000004
20
110.2
30
0.0
 70
     32
  0
VERTEX
  8
MY3DLAYER
10
65.0
20
110.2
30
0.0
 70
     32
  0
VERTEX
  8
MY3DLAYER
10
65.0
20
113.0
30
0.0
 70
     32
  0
VERTEX
  8
MY3DLAYER
10
25.000000000000004
20
113.0
30
0.0
 70
     32
  0
VERTEX
  8
MY3DLAYER
10
25.000000000000004
20
110.2
30
0.0
 70
     32
  0
SEQEND
  0
POLYLINE
 8
Layer0
 66
     1
70
    8
 10
0.0
 20
 0.0
 30
0.0
  0
VERTEX
  8
MY3DLAYER
10
88.0
20
90.0
30
0.0
 70
     32
  0
VERTEX
  8
MY3DLAYER
10
85.2
20
90.0
30
0.0
 70
     32
  0
VERTEX
  8
MY3DLAYER
10
85.2
20
50.0
30
0.0
 70
     32
  0
VERTEX
  8
MY3DLAYER
10
88.0
20
50.0
30
0.0
 70
     32
  0
VERTEX
  8
MY3DLAYER
10
88.0
20
90.0
30
0.0
 70
     32
  0
SEQEND
  0
POLYLINE
 8
Layer0
 66
     1
70
    8
 10
0.0
 20
 0.0
 30
0.0
  0
VERTEX
  8
MY3DLAYER
10
45.0
20
7.499999999999999
30
0.0
 70
     32
  0
VERTEX
  8
MY3DLAYER
10
45.6470476127563
20
7.585185434277328
30
0.0
 70
     32
  0
VERTEX
  8
MY3DLAYER
10
46.25
20
7.834936490538901
30
0.0
 70
     32
  0
VERTEX
  8
MY3DLAYER
10
46.76776695296637
20
8.23223304703363
30
0.0
 70
     32
  0
VERTEX
  8
MY3DLAYER
10
47.1650635094611
20
8.749999999999998
30
0.0
 70
     32
  0
VERTEX
  8
MY3DLAYER
10
47.41481456572267
20
9.352952387243695
30
0.0
 70
     32
  0
VERTEX
  8
MY3DLAYER
10
47.5
20
10.0
30
0.0
 70
     32
  0
VERTEX
  8
MY3DLAYER
10
47.41481456572267
20
10.647047612756303
30
0.0
 70
     32
  0
VERTEX
  8
MY3DLAYER
10
47.1650635094611
20
11.25
30
0.0
 70
     32
  0
VERTEX
  8
MY3DLAYER
10
46.76776695296637
20
11.767766952966369
30
0.0
 70
     32
  0
VERTEX
  8
MY3DLAYER
10
46.25000000000001
20
12.165063509461097
30
0.0
 70
     32
  0
VERTEX
  8
MY3DLAYER
10
45.6470476127563
20
12.414814565722672
30
0.0
 70
     32
  0
VERTEX
  8
MY3DLAYER
10
45.0
20
12.500000000000002
30
0.0
 70
     32
  0
VERTEX
  8
MY3DLAYER
10
44.352952387243704
20
12.414814565722672
30
0.0
 70
     32
  0
VERTEX
  8
MY3DLAYER
10
43.75000000000001
20
12.165063509461097
30
0.0
 70
     32
  0
VERTEX
  8
MY3DLAYER
10
43.23223304703363
20
11.767766952966369
30
0.0
 70
     32
  0
VERTEX
  8
MY3DLAYER
10
42.83493649053891
20
11.250000000000002
30
0.0
 70
     32
  0
VERTEX
  8
MY3DLAYER
10
42.585185434277335
20
10.647047612756303
30
0.0
 70
     32
  0
VERTEX
  8
MY3DLAYER
10
42.5
20
10.0
30
0.0
 70
     32
  0
VERTEX
  8
MY3DLAYER
10
42.58518543427733
20
9.352952387243699
30
0.0
 70
     32
  0
VERTEX
  8
MY3DLAYER
10
42.8349364905389
20
8.75
30
0.0
 70
     32
  0
VERTEX
  8
MY3DLAYER
10
43.23223304703363
20
8.232233047033631
30
0.0
 70
     32
  0
VERTEX
  8
MY3DLAYER
10
43.75
20
7.834936490538904
30
0.0
 70
     32
  0
VERTEX
  8
MY3DLAYER
10
44.352952387243704
20
7.585185434277328
30
0.0
 70
     32
  0
VERTEX
  8
MY3DLAYER
10
45.0
20
7.499999999999999
30
0.0
 70
     32
  0
SEQEND
  0
POLYLINE
 8
Layer0
 66
     1
70
    8
 10
0.0
 20
 0.0
 30
0.0
  0
VERTEX
  8
MY3DLAYER
10
45.6470476127563
20
132.41481456572265
30
0.0
 70
     32
  0
VERTEX
  8
MY3DLAYER
10
45.0
20
132.49999999999997
30
0.0
 70
     32
  0
VERTEX
  8
MY3DLAYER
10
44.352952387243704
20
132.41481456572265
30
0.0
 70
     32
  0
VERTEX
  8
MY3DLAYER
10
43.75000000000001
20
132.1650635094611
30
0.0
 70
     32
  0
VERTEX
  8
MY3DLAYER
10
43.23223304703363
20
131.76776695296635
30
0.0
 70
     32
  0
VERTEX
  8
MY3DLAYER
10
42.83493649053891
20
131.25
30
0.0
 70
     32
  0
VERTEX
  8
MY3DLAYER
10
42.585185434277335
20
130.6470476127563
30
0.0
 70
     32
  0
VERTEX
  8
MY3DLAYER
10
42.5
20
130.0
30
0.0
 70
     32
  0
VERTEX
  8
MY3DLAYER
10
42.58518543427733
20
129.3529523872437
30
0.0
 70
     32
  0
VERTEX
  8
MY3DLAYER
10
42.8349364905389
20
128.74999999999997
30
0.0
 70
     32
  0
VERTEX
  8
MY3DLAYER
10
43.23223304703363
20
128.23223304703362
30
0.0
 70
     32
  0
VERTEX
  8
MY3DLAYER
10
43.75
20
127.83493649053888
30
0.0
 70
     32
  0
VERTEX
  8
MY3DLAYER
10
44.352952387243704
20
127.58518543427732
30
0.0
 70
     32
  0
VERTEX
  8
MY3DLAYER
10
45.0
20
127.49999999999999
30
0.0
 70
     32
  0
VERTEX
  8
MY3DLAYER
10
45.6470476127563
20
127.58518543427732
30
0.0
 70
     32
  0
VERTEX
  8
MY3DLAYER
10
46.25
20
127.83493649053888
30
0.0
 70
     32
  0
VERTEX
  8
MY3DLAYER
10
46.76776695296637
20
128.23223304703362
30
0.0
 70
     32
  0
VERTEX
  8
MY3DLAYER
10
47.1650635094611
20
128.74999999999997
30
0.0
 70
     32
  0
VERTEX
  8
MY3DLAYER
10
47.41481456572267
20
129.35295238724368
30
0.0
 70
     32
  0
VERTEX
  8
MY3DLAYER
10
47.5
20
130.0
30
0.0
 70
     32
  0
VERTEX
  8
MY3DLAYER
10
47.41481456572267
20
130.6470476127563
30
0.0
 70
     32
  0
VERTEX
  8
MY3DLAYER
10
47.1650635094611
20
131.25
30
0.0
 70
     32
  0
VERTEX
  8
MY3DLAYER
10
46.76776695296637
20
131.76776695296635
30
0.0
 70
     32
  0
VERTEX
  8
MY3DLAYER
10
46.25000000000001
20
132.1650635094611
30
0.0
 70
     32
  0
VERTEX
  8
MY3DLAYER
10
45.6470476127563
20
132.41481456572265
30
0.0
 70
     32
  0
SEQEND
  0
POLYLINE
 8
Layer0
 66
     1
70
    8
 10
0.0
 20
 0.0
 30
0.0
  0
VERTEX
  8
MY3DLAYER
10
20.0
20
99.0
30
0.0
 70
     32
  0
VERTEX
  8
MY3DLAYER
10
70.0
20
99.0
30
0.0
 70
     32
  0
VERTEX
  8
MY3DLAYER
10
70.0
20
74.0
30
0.0
 70
     32
  0
VERTEX
  8
MY3DLAYER
10
65.0
20
74.0
30
0.0
 70
     32
  0
VERTEX
  8
MY3DLAYER
10
65.0
20
71.1
30
0.0
 70
     32
  0
VERTEX
  8
MY3DLAYER
10
24.999999999999993
20
71.1
30
0.0
 70
     32
  0
VERTEX
  8
MY3DLAYER
10
24.999999999999993
20
74.0
30
0.0
 70
     32
  0
VERTEX
  8
MY3DLAYER
10
20.0
20
74.0
30
0.0
 70
     32
  0
VERTEX
  8
MY3DLAYER
10
20.0
20
99.0
30
0.0
 70
     32
  0
SEQEND
  0
POLYLINE
 8
Layer0
 66
     1
70
    8
 10
0.0
 20
 0.0
 30
0.0
  0
VERTEX
  8
MY3DLAYER
10
24.999999999999993
20
95.0
30
0.0
 70
     32
  0
VERTEX
  8
MY3DLAYER
10
65.0
20
95.0
30
0.0
 70
     32
  0
VERTEX
  8
MY3DLAYER
10
65.0
20
96.99999999999999
30
0.0
 70
     32
  0
VERTEX
  8
MY3DLAYER
10
24.999999999999993
20
96.99999999999999
30
0.0
 70
     32
  0
VERTEX
  8
MY3DLAYER
10
24.999999999999993
20
95.0
30
0.0
 70
     32
  0
SEQEND
  0
POLYLINE
 8
Layer0
 66
     1
70
    8
 10
0.0
 20
 0.0
 30
0.0
  0
VERTEX
  8
MY3DLAYER
10
34.82962913144534
20
85.2059047744874
30
0.0
 70
     32
  0
VERTEX
  8
MY3DLAYER
10
34.99999999999999
20
86.5
30
0.0
 70
     32
  0
VERTEX
  8
MY3DLAYER
10
34.82962913144534
20
87.7940952255126
30
0.0
 70
     32
  0
VERTEX
  8
MY3DLAYER
10
34.33012701892219
20
89.0
30
0.0
 70
     32
  0
VERTEX
  8
MY3DLAYER
10
33.53553390593274
20
90.03553390593274
30
0.0
 70
     32
  0
VERTEX
  8
MY3DLAYER
10
32.5
20
90.83012701892218
30
0.0
 70
     32
  0
VERTEX
  8
MY3DLAYER
10
31.294095225512603
20
91.32962913144534
30
0.0
 70
     32
  0
VERTEX
  8
MY3DLAYER
10
29.999999999999996
20
91.5
30
0.0
 70
     32
  0
VERTEX
  8
MY3DLAYER
10
28.705904774487394
20
91.32962913144534
30
0.0
 70
     32
  0
VERTEX
  8
MY3DLAYER
10
27.5
20
90.83012701892218
30
0.0
 70
     32
  0
VERTEX
  8
MY3DLAYER
10
26.464466094067262
20
90.03553390593274
30
0.0
 70
     32
  0
VERTEX
  8
MY3DLAYER
10
25.669872981077805
20
89.0
30
0.0
 70
     32
  0
VERTEX
  8
MY3DLAYER
10
25.17037086855466
20
87.7940952255126
30
0.0
 70
     32
  0
VERTEX
  8
MY3DLAYER
10
24.999999999999996
20
86.5
30
0.0
 70
     32
  0
VERTEX
  8
MY3DLAYER
10
25.170370868554656
20
85.2059047744874
30
0.0
 70
     32
  0
VERTEX
  8
MY3DLAYER
10
25.669872981077805
20
84.0
30
0.0
 70
     32
  0
VERTEX
  8
MY3DLAYER
10
26.464466094067262
20
82.96446609406726
30
0.0
 70
     32
  0
VERTEX
  8
MY3DLAYER
10
27.499999999999996
20
82.16987298107782
30
0.0
 70
     32
  0
VERTEX
  8
MY3DLAYER
10
28.705904774487394
20
81.67037086855466
30
0.0
 70
     32
  0
VERTEX
  8
MY3DLAYER
10
29.999999999999996
20
81.5
30
0.0
 70
     32
  0
VERTEX
  8
MY3DLAYER
10
31.2940952255126
20
81.67037086855466
30
0.0
 70
     32
  0
VERTEX
  8
MY3DLAYER
10
32.5
20
82.16987298107782
30
0.0
 70
     32
  0
VERTEX
  8
MY3DLAYER
10
33.53553390593273
20
82.96446609406726
30
0.0
 70
     32
  0
VERTEX
  8
MY3DLAYER
10
34.330127018922184
20
83.99999999999999
30
0.0
 70
     32
  0
VERTEX
  8
MY3DLAYER
10
34.82962913144534
20
85.2059047744874
30
0.0
 70
     32
  0
SEQEND
  0
POLYLINE
 8
Layer0
 66
     1
70
    8
 10
0.0
 20
 0.0
 30
0.0
  0
VERTEX
  8
MY3DLAYER
10
49.82962913144534
20
85.2059047744874
30
0.0
 70
     32
  0
VERTEX
  8
MY3DLAYER
10
50.0
20
86.5
30
0.0
 70
     32
  0
VERTEX
  8
MY3DLAYER
10
49.82962913144534
20
87.7940952255126
30
0.0
 70
     32
  0
VERTEX
  8
MY3DLAYER
10
49.33012701892219
20
89.0
30
0.0
 70
     32
  0
VERTEX
  8
MY3DLAYER
10
48.53553390593274
20
90.03553390593274
30
0.0
 70
     32
  0
VERTEX
  8
MY3DLAYER
10
47.5
20
90.83012701892218
30
0.0
 70
     32
  0
VERTEX
  8
MY3DLAYER
10
46.2940952255126
20
91.32962913144534
30
0.0
 70
     32
  0
VERTEX
  8
MY3DLAYER
10
45.0
20
91.5
30
0.0
 70
     32
  0
VERTEX
  8
MY3DLAYER
10
43.705904774487394
20
91.32962913144534
30
0.0
 70
     32
  0
VERTEX
  8
MY3DLAYER
10
42.49999999999999
20
90.83012701892218
30
0.0
 70
     32
  0
VERTEX
  8
MY3DLAYER
10
41.464466094067255
20
90.03553390593274
30
0.0
 70
     32
  0
VERTEX
  8
MY3DLAYER
10
40.6698729810778
20
89.0
30
0.0
 70
     32
  0
VERTEX
  8
MY3DLAYER
10
40.170370868554656
20
87.7940952255126
30
0.0
 70
     32
  0
VERTEX
  8
MY3DLAYER
10
39.99999999999999
20
86.5
30
0.0
 70
     32
  0
VERTEX
  8
MY3DLAYER
10
40.170370868554656
20
85.2059047744874
30
0.0
 70
     32
  0
VERTEX
  8
MY3DLAYER
10
40.6698729810778
20
84.0
30
0.0
 70
     32
  0
VERTEX
  8
MY3DLAYER
10
41.464466094067255
20
82.96446609406726
30
0.0
 70
     32
  0
VERTEX
  8
MY3DLAYER
10
42.49999999999999
20
82.16987298107782
30
0.0
 70
     32
  0
VERTEX
  8
MY3DLAYER
10
43.70590477448739
20
81.67037086855466
30
0.0
 70
     32
  0
VERTEX
  8
MY3DLAYER
10
45.0
20
81.5
30
0.0
 70
     32
  0
VERTEX
  8
MY3DLAYER
10
46.2940952255126
20
81.67037086855466
30
0.0
 70
     32
  0
VERTEX
  8
MY3DLAYER
10
47.49999999999999
20
82.1698729810778
30
0.0
 70
     32
  0
VERTEX
  8
MY3DLAYER
10
48.53553390593274
20
82.96446609406726
30
0.0
 70
     32
  0
VERTEX
  8
MY3DLAYER
10
49.33012701892219
20
83.99999999999999
30
0.0
 70
     32
  0
VERTEX
  8
MY3DLAYER
10
49.82962913144534
20
85.2059047744874
30
0.0
 70
     32
  0
SEQEND
  0
POLYLINE
 8
Layer0
 66
     1
70
    8
 10
0.0
 20
 0.0
 30
0.0
  0
VERTEX
  8
MY3DLAYER
10
64.82962913144534
20
85.2059047744874
30
0.0
 70
     32
  0
VERTEX
  8
MY3DLAYER
10
65.0
20
86.5
30
0.0
 70
     32
  0
VERTEX
  8
MY3DLAYER
10
64.82962913144536
20
87.7940952255126
30
0.0
 70
     32
  0
VERTEX
  8
MY3DLAYER
10
64.3301270189222
20
89.0
30
0.0
 70
     32
  0
VERTEX
  8
MY3DLAYER
10
63.53553390593274
20
90.03553390593274
30
0.0
 70
     32
  0
VERTEX
  8
MY3DLAYER
10
62.50000000000001
20
90.83012701892218
30
0.0
 70
     32
  0
VERTEX
  8
MY3DLAYER
10
61.294095225512606
20
91.32962913144534
30
0.0
 70
     32
  0
VERTEX
  8
MY3DLAYER
10
60.0
20
91.5
30
0.0
 70
     32
  0
VERTEX
  8
MY3DLAYER
10
58.7059047744874
20
91.32962913144534
30
0.0
 70
     32
  0
VERTEX
  8
MY3DLAYER
10
57.50000000000001
20
90.83012701892218
30
0.0
 70
     32
  0
VERTEX
  8
MY3DLAYER
10
56.46446609406727
20
90.03553390593274
30
0.0
 70
     32
  0
VERTEX
  8
MY3DLAYER
10
55.669872981077816
20
89.0
30
0.0
 70
     32
  0
VERTEX
  8
MY3DLAYER
10
55.170370868554656
20
87.7940952255126
30
0.0
 70
     32
  0
VERTEX
  8
MY3DLAYER
10
55.0
20
86.5
30
0.0
 70
     32
  0
VERTEX
  8
MY3DLAYER
10
55.170370868554656
20
85.2059047744874
30
0.0
 70
     32
  0
VERTEX
  8
MY3DLAYER
10
55.669872981077816
20
84.0
30
0.0
 70
     32
  0
VERTEX
  8
MY3DLAYER
10
56.464466094067255
20
82.96446609406726
30
0.0
 70
     32
  0
VERTEX
  8
MY3DLAYER
10
57.49999999999999
20
82.16987298107782
30
0.0
 70
     32
  0
VERTEX
  8
MY3DLAYER
10
58.7059047744874
20
81.67037086855466
30
0.0
 70
     32
  0
VERTEX
  8
MY3DLAYER
10
60.0
20
81.5
30
0.0
 70
     32
  0
VERTEX
  8
MY3DLAYER
10
61.294095225512606
20
81.67037086855466
30
0.0
 70
     32
  0
VERTEX
  8
MY3DLAYER
10
62.5
20
82.1698729810778
30
0.0
 70
     32
  0
VERTEX
  8
MY3DLAYER
10
63.53553390593274
20
82.96446609406726
30
0.0
 70
     32
  0
VERTEX
  8
MY3DLAYER
10
64.3301270189222
20
83.99999999999999
30
0.0
 70
     32
  0
VERTEX
  8
MY3DLAYER
10
64.82962913144534
20
85.2059047744874
30
0.0
 70
     32
  0
SEQEND
  0
POLYLINE
 8
Layer0
 66
     1
70
    8
 10
0.0
 20
 0.0
 30
0.0
  0
VERTEX
  8
MY3DLAYER
10
65.0
20
77.0
30
0.0
 70
     32
  0
VERTEX
  8
MY3DLAYER
10
65.0
20
79.0
30
0.0
 70
     32
  0
VERTEX
  8
MY3DLAYER
10
24.999999999999993
20
79.0
30
0.0
 70
     32
  0
VERTEX
  8
MY3DLAYER
10
24.999999999999993
20
77.0
30
0.0
 70
     32
  0
VERTEX
  8
MY3DLAYER
10
65.0
20
77.0
30
0.0
 70
     32
  0
SEQEND
  0
POLYLINE
 8
Layer0
 66
     1
70
    8
 10
0.0
 20
 0.0
 30
0.0
  0
VERTEX
  8
MY3DLAYER
10
65.0
20
65.99999999999999
30
0.0
 70
     32
  0
VERTEX
  8
MY3DLAYER
10
70.0
20
65.99999999999999
30
0.0
 70
     32
  0
VERTEX
  8
MY3DLAYER
10
70.0
20
41.0
30
0.0
 70
     32
  0
VERTEX
  8
MY3DLAYER
10
20.0
20
41.0
30
0.0
 70
     32
  0
VERTEX
  8
MY3DLAYER
10
20.0
20
65.99999999999999
30
0.0
 70
     32
  0
VERTEX
  8
MY3DLAYER
10
24.999999999999993
20
65.99999999999999
30
0.0
 70
     32
  0
VERTEX
  8
MY3DLAYER
10
24.999999999999993
20
68.89999999999999
30
0.0
 70
     32
  0
VERTEX
  8
MY3DLAYER
10
65.0
20
68.89999999999999
30
0.0
 70
     32
  0
VERTEX
  8
MY3DLAYER
10
65.0
20
65.99999999999999
30
0.0
 70
     32
  0
SEQEND
  0
POLYLINE
 8
Layer0
 66
     1
70
    8
 10
0.0
 20
 0.0
 30
0.0
  0
VERTEX
  8
MY3DLAYER
10
65.0
20
45.0
30
0.0
 70
     32
  0
VERTEX
  8
MY3DLAYER
10
24.999999999999993
20
45.0
30
0.0
 70
     32
  0
VERTEX
  8
MY3DLAYER
10
24.999999999999993
20
42.99999999999999
30
0.0
 70
     32
  0
VERTEX
  8
MY3DLAYER
10
65.0
20
42.99999999999999
30
0.0
 70
     32
  0
VERTEX
  8
MY3DLAYER
10
65.0
20
45.0
30
0.0
 70
     32
  0
SEQEND
  0
POLYLINE
 8
Layer0
 66
     1
70
    8
 10
0.0
 20
 0.0
 30
0.0
  0
VERTEX
  8
MY3DLAYER
10
64.82962913144534
20
52.20590477448739
30
0.0
 70
     32
  0
VERTEX
  8
MY3DLAYER
10
65.0
20
53.49999999999999
30
0.0
 70
     32
  0
VERTEX
  8
MY3DLAYER
10
64.82962913144536
20
54.79409522551259
30
0.0
 70
     32
  0
VERTEX
  8
MY3DLAYER
10
64.3301270189222
20
55.999999999999986
30
0.0
 70
     32
  0
VERTEX
  8
MY3DLAYER
10
63.53553390593274
20
57.03553390593273
30
0.0
 70
     32
  0
VERTEX
  8
MY3DLAYER
10
62.50000000000001
20
57.830127018922184
30
0.0
 70
     32
  0
VERTEX
  8
MY3DLAYER
10
61.294095225512606
20
58.329629131445344
30
0.0
 70
     32
  0
VERTEX
  8
MY3DLAYER
10
60.0
20
58.49999999999999
30
0.0
 70
     32
  0
VERTEX
  8
MY3DLAYER
10
58.7059047744874
20
58.329629131445344
30
0.0
 70
     32
  0
VERTEX
  8
MY3DLAYER
10
57.50000000000001
20
57.830127018922184
30
0.0
 70
     32
  0
VERTEX
  8
MY3DLAYER
10
56.46446609406727
20
57.03553390593273
30
0.0
 70
     32
  0
VERTEX
  8
MY3DLAYER
10
55.669872981077816
20
56.0
30
0.0
 70
     32
  0
VERTEX
  8
MY3DLAYER
10
55.170370868554656
20
54.79409522551259
30
0.0
 70
     32
  0
VERTEX
  8
MY3DLAYER
10
55.0
20
53.49999999999999
30
0.0
 70
     32
  0
VERTEX
  8
MY3DLAYER
10
55.170370868554656
20
52.20590477448739
30
0.0
 70
     32
  0
VERTEX
  8
MY3DLAYER
10
55.669872981077816
20
51.0
30
0.0
 70
     32
  0
VERTEX
  8
MY3DLAYER
10
56.464466094067255
20
49.964466094067255
30
0.0
 70
     32
  0
VERTEX
  8
MY3DLAYER
10
57.49999999999999
20
49.169872981077795
30
0.0
 70
     32
  0
VERTEX
  8
MY3DLAYER
10
58.7059047744874
20
48.67037086855465
30
0.0
 70
     32
  0
VERTEX
  8
MY3DLAYER
10
60.0
20
48.49999999999999
30
0.0
 70
     32
  0
VERTEX
  8
MY3DLAYER
10
61.294095225512606
20
48.67037086855465
30
0.0
 70
     32
  0
VERTEX
  8
MY3DLAYER
10
62.5
20
49.169872981077795
30
0.0
 70
     32
  0
VERTEX
  8
MY3DLAYER
10
63.53553390593274
20
49.96446609406725
30
0.0
 70
     32
  0
VERTEX
  8
MY3DLAYER
10
64.3301270189222
20
50.999999999999986
30
0.0
 70
     32
  0
VERTEX
  8
MY3DLAYER
10
64.82962913144534
20
52.20590477448739
30
0.0
 70
     32
  0
SEQEND
  0
POLYLINE
 8
Layer0
 66
     1
70
    8
 10
0.0
 20
 0.0
 30
0.0
  0
VERTEX
  8
MY3DLAYER
10
40.170370868554656
20
54.79409522551259
30
0.0
 70
     32
  0
VERTEX
  8
MY3DLAYER
10
39.99999999999999
20
53.49999999999999
30
0.0
 70
     32
  0
VERTEX
  8
MY3DLAYER
10
40.170370868554656
20
52.20590477448739
30
0.0
 70
     32
  0
VERTEX
  8
MY3DLAYER
10
40.6698729810778
20
51.0
30
0.0
 70
     32
  0
VERTEX
  8
MY3DLAYER
10
41.464466094067255
20
49.964466094067255
30
0.0
 70
     32
  0
VERTEX
  8
MY3DLAYER
10
42.49999999999999
20
49.169872981077795
30
0.0
 70
     32
  0
VERTEX
  8
MY3DLAYER
10
43.70590477448739
20
48.67037086855465
30
0.0
 70
     32
  0
VERTEX
  8
MY3DLAYER
10
45.0
20
48.49999999999999
30
0.0
 70
     32
  0
VERTEX
  8
MY3DLAYER
10
46.2940952255126
20
48.67037086855465
30
0.0
 70
     32
  0
VERTEX
  8
MY3DLAYER
10
47.49999999999999
20
49.169872981077795
30
0.0
 70
     32
  0
VERTEX
  8
MY3DLAYER
10
48.53553390593274
20
49.96446609406725
30
0.0
 70
     32
  0
VERTEX
  8
MY3DLAYER
10
49.33012701892219
20
50.999999999999986
30
0.0
 70
     32
  0
VERTEX
  8
MY3DLAYER
10
49.82962913144534
20
52.20590477448739
30
0.0
 70
     32
  0
VERTEX
  8
MY3DLAYER
10
50.0
20
53.49999999999999
30
0.0
 70
     32
  0
VERTEX
  8
MY3DLAYER
10
49.82962913144534
20
54.79409522551259
30
0.0
 70
     32
  0
VERTEX
  8
MY3DLAYER
10
49.33012701892219
20
55.999999999999986
30
0.0
 70
     32
  0
VERTEX
  8
MY3DLAYER
10
48.53553390593274
20
57.03553390593273
30
0.0
 70
     32
  0
VERTEX
  8
MY3DLAYER
10
47.5
20
57.830127018922184
30
0.0
 70
     32
  0
VERTEX
  8
MY3DLAYER
10
46.2940952255126
20
58.329629131445344
30
0.0
 70
     32
  0
VERTEX
  8
MY3DLAYER
10
45.0
20
58.49999999999999
30
0.0
 70
     32
  0
VERTEX
  8
MY3DLAYER
10
43.705904774487394
20
58.329629131445344
30
0.0
 70
     32
  0
VERTEX
  8
MY3DLAYER
10
42.49999999999999
20
57.830127018922184
30
0.0
 70
     32
  0
VERTEX
  8
MY3DLAYER
10
41.464466094067255
20
57.03553390593273
30
0.0
 70
     32
  0
VERTEX
  8
MY3DLAYER
10
40.6698729810778
20
56.0
30
0.0
 70
     32
  0
VERTEX
  8
MY3DLAYER
10
40.170370868554656
20
54.79409522551259
30
0.0
 70
     32
  0
SEQEND
  0
POLYLINE
 8
Layer0
 66
     1
70
    8
 10
0.0
 20
 0.0
 30
0.0
  0
VERTEX
  8
MY3DLAYER
10
25.170370868554652
20
54.79409522551259
30
0.0
 70
     32
  0
VERTEX
  8
MY3DLAYER
10
24.999999999999993
20
53.49999999999999
30
0.0
 70
     32
  0
VERTEX
  8
MY3DLAYER
10
25.170370868554652
20
52.20590477448739
30
0.0
 70
     32
  0
VERTEX
  8
MY3DLAYER
10
25.6698729810778
20
51.0
30
0.0
 70
     32
  0
VERTEX
  8
MY3DLAYER
10
26.464466094067255
20
49.964466094067255
30
0.0
 70
     32
  0
VERTEX
  8
MY3DLAYER
10
27.499999999999996
20
49.169872981077795
30
0.0
 70
     32
  0
VERTEX
  8
MY3DLAYER
10
28.705904774487387
20
48.67037086855465
30
0.0
 70
     32
  0
VERTEX
  8
MY3DLAYER
10
29.999999999999996
20
48.49999999999999
30
0.0
 70
     32
  0
VERTEX
  8
MY3DLAYER
10
31.2940952255126
20
48.67037086855465
30
0.0
 70
     32
  0
VERTEX
  8
MY3DLAYER
10
32.49999999999999
20
49.169872981077795
30
0.0
 70
     32
  0
VERTEX
  8
MY3DLAYER
10
33.53553390593274
20
49.96446609406725
30
0.0
 70
     32
  0
VERTEX
  8
MY3DLAYER
10
34.33012701892219
20
50.999999999999986
30
0.0
 70
     32
  0
VERTEX
  8
MY3DLAYER
10
34.82962913144534
20
52.20590477448739
30
0.0
 70
     32
  0
VERTEX
  8
MY3DLAYER
10
35.0
20
53.49999999999999
30
0.0
 70
     32
  0
VERTEX
  8
MY3DLAYER
10
34.82962913144534
20
54.79409522551259
30
0.0
 70
     32
  0
VERTEX
  8
MY3DLAYER
10
34.33012701892219
20
55.999999999999986
30
0.0
 70
     32
  0
VERTEX
  8
MY3DLAYER
10
33.53553390593274
20
57.03553390593273
30
0.0
 70
     32
  0
VERTEX
  8
MY3DLAYER
10
32.5
20
57.830127018922184
30
0.0
 70
     32
  0
VERTEX
  8
MY3DLAYER
10
31.294095225512603
20
58.329629131445344
30
0.0
 70
     32
  0
VERTEX
  8
MY3DLAYER
10
29.999999999999996
20
58.49999999999999
30
0.0
 70
     32
  0
VERTEX
  8
MY3DLAYER
10
28.705904774487394
20
58.329629131445344
30
0.0
 70
     32
  0
VERTEX
  8
MY3DLAYER
10
27.499999999999996
20
57.830127018922184
30
0.0
 70
     32
  0
VERTEX
  8
MY3DLAYER
10
26.464466094067255
20
57.03553390593273
30
0.0
 70
     32
  0
VERTEX
  8
MY3DLAYER
10
25.6698729810778
20
56.0
30
0.0
 70
     32
  0
VERTEX
  8
MY3DLAYER
10
25.170370868554652
20
54.79409522551259
30
0.0
 70
     32
  0
SEQEND
  0
POLYLINE
 8
Layer0
 66
     1
70
    8
 10
0.0
 20
 0.0
 30
0.0
  0
VERTEX
  8
MY3DLAYER
10
24.999999999999993
20
60.99999999999999
30
0.0
 70
     32
  0
VERTEX
  8
MY3DLAYER
10
65.0
20
60.99999999999999
30
0.0
 70
     32
  0
VERTEX
  8
MY3DLAYER
10
65.0
20
62.999999999999986
30
0.0
 70
     32
  0
VERTEX
  8
MY3DLAYER
10
24.999999999999993
20
62.999999999999986
30
0.0
 70
     32
  0
VERTEX
  8
MY3DLAYER
10
24.999999999999993
20
60.99999999999999
30
0.0
 70
     32
  0
SEQEND
 0
ENDSEC
 0
EOF
