 0
SECTION
 2
ENTITIES
  0
POLYLINE
 8
Layer0
 66
     1
70
    8
 10
0.0
 20
 0.0
 30
0.0
  0
VERTEX
  8
MY3DLAYER
10
35.35533905932738
20
-35.355339059327385
30
0.0
 70
     32
  0
VERTEX
  8
MY3DLAYER
10
24.99999999999996
20
-43.30127018922195
30
0.0
 70
     32
  0
VERTEX
  8
MY3DLAYER
10
-25.00000000000002
20
-43.30127018922192
30
0.0
 70
     32
  0
VERTEX
  8
MY3DLAYER
10
-35.3553390593274
20
-35.355339059327356
30
0.0
 70
     32
  0
VERTEX
  8
MY3DLAYER
10
-43.30127018922194
20
-24.99999999999999
30
0.0
 70
     32
  0
VERTEX
  8
MY3DLAYER
10
-48.29629131445342
20
-12.940952255126017
30
0.0
 70
     32
  0
VERTEX
  8
MY3DLAYER
10
-50.0
20
6.123233995736766e-15
30
0.0
 70
     32
  0
VERTEX
  8
MY3DLAYER
10
-48.29629131445341
20
12.940952255126051
30
0.0
 70
     32
  0
VERTEX
  8
MY3DLAYER
10
-43.301270189221924
20
25.000000000000018
30
0.0
 70
     32
  0
VERTEX
  8
MY3DLAYER
10
-35.35533905932738
20
35.35533905932738
30
0.0
 70
     32
  0
VERTEX
  8
MY3DLAYER
10
-24.99999999999999
20
43.30127018922194
30
0.0
 70
     32
  0
VERTEX
  8
MY3DLAYER
10
-12.940952255126032
20
48.29629131445342
30
0.0
 70
     32
  0
VERTEX
  8
MY3DLAYER
10
3.061616997868383e-15
20
50.0
30
0.0
 70
     32
  0
VERTEX
  8
MY3DLAYER
10
12.940952255126048
20
48.29629131445341
30
0.0
 70
     32
  0
VERTEX
  8
MY3DLAYER
10
25.000000000000004
20
43.30127018922193
30
0.0
 70
     32
  0
VERTEX
  8
MY3DLAYER
10
35.35533905932738
20
35.35533905932738
30
0.0
 70
     32
  0
VERTEX
  8
MY3DLAYER
10
43.30127018922194
20
24.999999999999996
30
0.0
 70
     32
  0
VERTEX
  8
MY3DLAYER
10
48.29629131445342
20
12.940952255126037
30
0.0
 70
     32
  0
VERTEX
  8
MY3DLAYER
10
50.0
20
0.0
30
0.0
 70
     32
  0
VERTEX
  8
MY3DLAYER
10
48.296291314453406
20
-12.940952255126076
30
0.0
 70
     32
  0
VERTEX
  8
MY3DLAYER
10
43.30127018922192
20
-25.00000000000002
30
0.0
 70
     32
  0
VERTEX
  8
MY3DLAYER
10
35.35533905932738
20
-35.355339059327385
30
0.0
 70
     32
  0
SEQEND
  0
POLYLINE
 8
Layer0
 66
     1
70
    8
 10
0.0
 20
 0.0
 30
0.0
  0
VERTEX
  8
MY3DLAYER
10
20.0
20
-6.0
30
0.0
 70
     32
  0
VERTEX
  8
MY3DLAYER
10
-20.0
20
-6.0
30
0.0
 70
     32
  0
VERTEX
  8
MY3DLAYER
10
-20.0
20
-7.999999999999999
30
0.0
 70
     32
  0
VERTEX
  8
MY3DLAYER
10
20.0
20
-7.999999999999999
30
0.0
 70
     32
  0
VERTEX
  8
MY3DLAYER
10
20.0
20
-6.0
30
0.0
 70
     32
  0
SEQEND
  0
POLYLINE
 8
Layer0
 66
     1
70
    8
 10
0.0
 20
 0.0
 30
0.0
  0
VERTEX
  8
MY3DLAYER
10
1.5
20
24.00000000000001
30
0.0
 70
     32
  0
VERTEX
  8
MY3DLAYER
10
-1.3
20
24.00000000000001
30
0.0
 70
     32
  0
VERTEX
  8
MY3DLAYER
10
-1.3
20
4.000000000000003
30
0.0
 70
     32
  0
VERTEX
  8
MY3DLAYER
10
1.5
20
4.000000000000005
30
0.0
 70
     32
  0
VERTEX
  8
MY3DLAYER
10
1.5
20
24.00000000000001
30
0.0
 70
     32
  0
SEQEND
  0
POLYLINE
 8
Layer0
 66
     1
70
    8
 10
0.0
 20
 0.0
 30
0.0
  0
VERTEX
  8
MY3DLAYER
10
82.7091407221012
20
-40.30127018922195
30
-4.00741339852274e-29
 70
     32
  0
VERTEX
  8
MY3DLAYER
10
72.70914072210121
20
-40.30127018922195
30
-4.00741339852274e-29
 70
     32
  0
VERTEX
  8
MY3DLAYER
10
72.70914072210121
20
-43.30127018922195
30
-4.00741339852274e-29
 70
     32
  0
VERTEX
  8
MY3DLAYER
10
52.709140722101225
20
-43.30127018922195
30
-4.00741339852274e-29
 70
     32
  0
VERTEX
  8
MY3DLAYER
10
52.709140722101225
20
-40.30127018922195
30
-4.00741339852274e-29
 70
     32
  0
VERTEX
  8
MY3DLAYER
10
42.70914072210122
20
-40.30127018922195
30
-4.00741339852274e-29
 70
     32
  0
VERTEX
  8
MY3DLAYER
10
64.06171194305922
20
39.38761047962618
30
-4.00741339852274e-29
 70
     32
  0
VERTEX
  8
MY3DLAYER
10
62.07882222031155
20
39.64866286406625
30
-4.00741339852274e-29
 70
     32
  0
VERTEX
  8
MY3DLAYER
10
61.43177460755524
20
37.233848298343595
30
-4.00741339852274e-29
 70
     32
  0
VERTEX
  8
MY3DLAYER
10
59.44888488480762
20
37.49490068278369
30
-4.00741339852274e-29
 70
     32
  0
VERTEX
  8
MY3DLAYER
10
60.09593249756393
20
39.9097152485064
30
-4.00741339852274e-29
 70
     32
  0
VERTEX
  8
MY3DLAYER
10
62.34240876342551
20
42.59361993886346
30
-4.00741339852274e-29
 70
     32
  0
VERTEX
  8
MY3DLAYER
10
67.24240876342543
20
42.59361993886346
30
-4.00741339852274e-29
 70
     32
  0
VERTEX
  8
MY3DLAYER
10
82.7091407221012
20
-40.30127018922195
30
-4.00741339852274e-29
 70
     32
  0
SEQEND
 0
ENDSEC
 0
EOF
